<svg width="129" height="34" viewBox="0 0 129 34" fill="none" xmlns="http://www.w3.org/2000/svg">
  <!-- CartMark logo: cart + checkmark icon at left, logotype at right -->
  <!-- Colors -->
  <!-- dark navy for cart & text, green for check -->
  <defs>
    <style>
      .cm-text { font-family: Inter, Arial, Helvetica, sans-serif; font-weight: 700; font-size: 14.5px; fill: #0F2B3B; }
    </style>
  </defs>

  <!-- Icon group (left) -->
  <g id="icon" transform="translate(0,5)">
    <!-- shopping cart body -->
    <path d="M3 6.5 H17.2 L14 13.3 C13.8 13.9 14.2 14.6 14.9 14.8 C15.6 15 16.3 14.6 16.5 13.9 L18.7 8.1 C18.9 7.5 18.5 6.9 17.9 6.6 L5.2 3.2 C4.6 3 4 3.4 3.8 4.0 C3.7 4.3 3.6 4.9 3.6 5.2 V6.5 Z" fill="#0F2B3B"/>
    <!-- handle -->
    <rect x="0.5" y="0.8" width="3.4" height="1.8" rx="0.9" fill="#0F2B3B" />
    <!-- cart rim (top edge) -->
    <path d="M5.2 3.2 L17.9 6.6" stroke="#0F2B3B" stroke-width="0.9" stroke-linecap="round" stroke-linejoin="round" />
    <!-- wheels -->
    <circle cx="7.4" cy="17.5" r="2.3" fill="#0F2B3B"/>
    <circle cx="15.6" cy="17.5" r="2.3" fill="#0F2B3B"/>

    <!-- checkmark inset (slightly overlapping cart) -->
    <path d="M10.2 9.0 L12.8 11.6 L17.6 6.8" stroke="#2FA24A" stroke-width="2.2" stroke-linecap="round" stroke-linejoin="round" fill="none"/>
  </g>

  <!-- Logotype -->
  <text class="cm-text" x="36" y="22" dominant-baseline="alphabetic">CartMark</text>
</svg>
